<svg xmlns="http://www.w3.org/2000/svg" xmlns:xlink="http://www.w3.org/1999/xlink" fill="none" version="1.1" width="29.863311767578125" height="27.9697265625" viewBox="0 0 29.863311767578125 27.9697265625"><defs><filter id="master_svg0_475_685" filterUnits="objectBoundingBox" color-interpolation-filters="sRGB" x="0" y="0" width="1" height="1"><feFlood flood-opacity="0" result="BackgroundImageFix"/><feBlend mode="normal" in="SourceGraphic" in2="BackgroundImageFix" result="shape"/><feColorMatrix in="SourceAlpha" type="matrix" result="hardAlpha" values="0 0 0 0 0 0 0 0 0 0 0 0 0 0 0 0 0 0 127 0"/><feOffset dy="-1" dx="-0.30000001192092896"/><feGaussianBlur stdDeviation="1"/><feComposite in2="hardAlpha" operator="arithmetic" k2="-1" k3="1"/><feColorMatrix type="matrix" values="0 0 0 0 0.8627449870109558 0 0 0 0 0.4352940022945404 0 0 0 0 0.3215689957141876 0 0 0 1 0"/><feBlend mode="normal" in2="shape" result="effect1_innerShadow"/></filter><linearGradient x1="0.6816262602806091" y1="0.06575802713632584" x2="0.19792946066614028" y2="0.8757598753459945" id="master_svg1_475_782"><stop offset="0%" stop-color="#E8B229" stop-opacity="1"/><stop offset="100%" stop-color="#EA9D3E" stop-opacity="1"/></linearGradient><radialGradient cx="0" cy="0" r="1" gradientUnits="userSpaceOnUse" id="master_svg2_475_783" gradientTransform="translate(12.357619779201684 8.228965229292733) rotate(151.14399912719566) scale(2.422900098385647 2.392710213344542)"><stop offset="0%" stop-color="#D5A047" stop-opacity="1"/><stop offset="100%" stop-color="#D5A047" stop-opacity="0"/></radialGradient><linearGradient x1="0.13180340826511383" y1="0.1340690404176712" x2="0.6538514446062421" y2="0.4153956179200675" id="master_svg3_475_784"><stop offset="0%" stop-color="#DD7828" stop-opacity="1"/><stop offset="100%" stop-color="#EC82AA" stop-opacity="1"/></linearGradient><linearGradient x1="1.0117019414901733" y1="1" x2="0.9420296549797058" y2="1" id="master_svg4_475_785"><stop offset="0%" stop-color="#F3CA7E" stop-opacity="1"/><stop offset="100%" stop-color="#F3CA7E" stop-opacity="0"/></linearGradient><radialGradient cx="0" cy="0" r="1" gradientUnits="userSpaceOnUse" id="master_svg5_475_786" gradientTransform="translate(12.206119465743967 24.36936509956638) rotate(135.86899993959605) scale(2.41350996559468 2.908070120964732)"><stop offset="0%" stop-color="#D76B0E" stop-opacity="1"/><stop offset="100%" stop-color="#E37C45" stop-opacity="1"/></radialGradient><radialGradient cx="0" cy="0" r="1" gradientUnits="userSpaceOnUse" id="master_svg6_475_787" gradientTransform="translate(10.583519415801106 23.534465061433494) rotate(90) scale(4.665230379916849 4.102310397513892)"><stop offset="77.58619785308838%" stop-color="#EC85B1" stop-opacity="0"/><stop offset="100%" stop-color="#EC85B1" stop-opacity="1"/></radialGradient><radialGradient cx="0" cy="0" r="1" gradientUnits="userSpaceOnUse" id="master_svg7_475_788" gradientTransform="translate(8.167359352111816 24.73576522187372) rotate(46.65200070276087) scale(2.2302301608515016 3.2587903834315166)"><stop offset="0%" stop-color="#DB8838" stop-opacity="1"/><stop offset="100%" stop-color="#DB8838" stop-opacity="0"/></radialGradient><radialGradient cx="0" cy="0" r="1" gradientUnits="userSpaceOnUse" id="master_svg8_475_789" gradientTransform="translate(6.298399138329984 22.547265621243355) rotate(119.18079663403907) scale(22.048199895494818 16.005198313749045)"><stop offset="0%" stop-color="#F3752E" stop-opacity="1"/><stop offset="100%" stop-color="#FD4E50" stop-opacity="1"/></radialGradient><radialGradient cx="0" cy="0" r="1" gradientUnits="userSpaceOnUse" id="master_svg9_475_790" gradientTransform="translate(10.676418830095429 19.73016430222583) rotate(122.07790022995792) scale(5.237059050515255 3.6120091225369872)"><stop offset="0%" stop-color="#D24611" stop-opacity="1"/><stop offset="100%" stop-color="#D24611" stop-opacity="0"/></radialGradient><filter id="master_svga_475_715" filterUnits="objectBoundingBox" color-interpolation-filters="sRGB" x="-0.22096373454538137" y="-0.12549286938605222" width="1.4419274690907626" height="1.2509857387721044"><feFlood flood-opacity="0" result="BackgroundImageFix"/><feBlend mode="normal" in="SourceGraphic" in2="BackgroundImageFix" result="shape"/><feGaussianBlur stdDeviation="0.5" result="effect1_foregroundBlur"/></filter><filter id="master_svgb_475_721" filterUnits="objectBoundingBox" color-interpolation-filters="sRGB" x="0" y="0" width="1" height="1"><feFlood flood-opacity="0" result="BackgroundImageFix"/><feBlend mode="normal" in="SourceGraphic" in2="BackgroundImageFix" result="shape"/><feColorMatrix in="SourceAlpha" type="matrix" result="hardAlpha" values="0 0 0 0 0 0 0 0 0 0 0 0 0 0 0 0 0 0 127 0"/><feOffset dy="-0.25" dx="0"/><feGaussianBlur stdDeviation="0.5"/><feComposite in2="hardAlpha" operator="arithmetic" k2="-1" k3="1"/><feColorMatrix type="matrix" values="0 0 0 0 0.9254900217056274 0 0 0 0 0.5098040103912354 0 0 0 0 0.6509799957275391 0 0 0 1 0"/><feBlend mode="normal" in2="shape" result="effect1_innerShadow"/></filter><linearGradient x1="0.39921197295188904" y1="0.08949466049671173" x2="1.0752642597075617" y2="0.6120438053129005" id="master_svgc_475_792"><stop offset="0%" stop-color="#FFD142" stop-opacity="1"/><stop offset="100%" stop-color="#FFD73D" stop-opacity="1"/></linearGradient><radialGradient cx="0" cy="0" r="1" gradientUnits="userSpaceOnUse" id="master_svgd_475_793" gradientTransform="translate(21.01091955708148 28.339263789309825) rotate(44.838995508854815) scale(9.85967993043966 6.280110296493973)"><stop offset="21.249200403690338%" stop-color="#F1816B" stop-opacity="1"/><stop offset="100%" stop-color="#F1816B" stop-opacity="0"/></radialGradient><radialGradient cx="0" cy="0" r="1" gradientUnits="userSpaceOnUse" id="master_svge_475_794" gradientTransform="translate(27.05971921588889 16.241664746256845) rotate(149.93100108139274) scale(5.1739496397860325 1.5736699793172002)"><stop offset="0%" stop-color="#FFEC5D" stop-opacity="1"/><stop offset="100%" stop-color="#FFEC5D" stop-opacity="0"/></radialGradient><linearGradient x1="0.7279018759727478" y1="0.16191816329956055" x2="0.7023995622368531" y2="0.2242727219817942" id="master_svgf_475_795"><stop offset="0%" stop-color="#F7D160" stop-opacity="1"/><stop offset="100%" stop-color="#F7D160" stop-opacity="0"/></linearGradient><linearGradient x1="0.7138541340827942" y1="0.14732429385185242" x2="0.5900324857201135" y2="0.34865644825287156" id="master_svgg_475_796"><stop offset="0%" stop-color="#F8D15D" stop-opacity="1"/><stop offset="100%" stop-color="#F8D15D" stop-opacity="0"/></linearGradient><linearGradient x1="1.0232118368148804" y1="0.5709543824195862" x2="0.9024150371551514" y2="0.5709543824195862" id="master_svgh_475_797"><stop offset="0%" stop-color="#F8D15D" stop-opacity="1"/><stop offset="100%" stop-color="#F8D15D" stop-opacity="0"/></linearGradient><radialGradient cx="0" cy="0" r="1" gradientUnits="userSpaceOnUse" id="master_svgi_475_798" gradientTransform="translate(11.40691916347896 18.32896614074707) rotate(134.3948569045863) scale(7.315757639920858 8.644037647322147)"><stop offset="24.949799478054047%" stop-color="#C4654E" stop-opacity="1"/><stop offset="100%" stop-color="#F19321" stop-opacity="0"/></radialGradient><radialGradient cx="0" cy="0" r="1" gradientUnits="userSpaceOnUse" id="master_svgj_475_799" gradientTransform="translate(11.406919313214862 18.328964348291038) rotate(134.39500636627676) scale(7.315740052674675 8.644061701875849)"><stop offset="24.949799478054047%" stop-color="#C4654E" stop-opacity="1"/><stop offset="100%" stop-color="#F19321" stop-opacity="0"/></radialGradient><linearGradient x1="0.07046280801296234" y1="0.22869744896888733" x2="1.069629037242079" y2="0.687686221624304" id="master_svgk_475_800"><stop offset="0%" stop-color="#C4A8BC" stop-opacity="1"/><stop offset="100%" stop-color="#E5D0FC" stop-opacity="1"/></linearGradient><linearGradient x1="0.9097667336463928" y1="0.7533984184265137" x2="0.837761147998038" y2="0.720421473736607" id="master_svgl_475_801"><stop offset="0%" stop-color="#CABAD5" stop-opacity="1"/><stop offset="100%" stop-color="#D4C5DE" stop-opacity="0"/><stop offset="100%" stop-color="#CABAD4" stop-opacity="0"/></linearGradient><linearGradient x1="0.1108492836356163" y1="0.49999260902404785" x2="0.7951578304525415" y2="0.6560103572498579" id="master_svgm_475_802"><stop offset="0%" stop-color="#E28A85" stop-opacity="1"/><stop offset="100%" stop-color="#FF95B3" stop-opacity="1"/></linearGradient><linearGradient x1="0.8203139901161194" y1="0.8940899968147278" x2="0.45294793604524053" y2="0.6795719876105246" id="master_svgn_475_803"><stop offset="0%" stop-color="#FF8DC2" stop-opacity="1"/><stop offset="100%" stop-color="#FF8DC2" stop-opacity="0"/></linearGradient><linearGradient x1="0.5068151354789734" y1="0.2778983414173126" x2="0.47613141481259824" y2="0.33605220531461943" id="master_svgo_475_804"><stop offset="0%" stop-color="#FFA3AE" stop-opacity="1"/><stop offset="100%" stop-color="#FFA3AE" stop-opacity="0"/></linearGradient><linearGradient x1="0.22359643876552582" y1="0.5524144768714905" x2="0.6633645664444676" y2="0.8869475905005652" id="master_svgp_475_805"><stop offset="0%" stop-color="#46144E" stop-opacity="1"/><stop offset="100%" stop-color="#5A1870" stop-opacity="1"/></linearGradient><filter id="master_svgq_475_766" filterUnits="objectBoundingBox" color-interpolation-filters="sRGB" x="-0.23803211986233502" y="-0.6209638425075054" width="1.47606423972467" height="2.241927685015011"><feFlood flood-opacity="0" result="BackgroundImageFix"/><feBlend mode="normal" in="SourceGraphic" in2="BackgroundImageFix" result="shape"/><feGaussianBlur stdDeviation="1" result="effect1_foregroundBlur"/></filter><linearGradient x1="0.16947190463542938" y1="0.18960796296596527" x2="0.4667703048647817" y2="0.4433752101874332" id="master_svgr_475_807"><stop offset="0%" stop-color="#F0A51D" stop-opacity="1"/><stop offset="100%" stop-color="#F0A51D" stop-opacity="0"/></linearGradient><radialGradient cx="0" cy="0" r="1" gradientUnits="userSpaceOnUse" id="master_svgs_475_808" gradientTransform="translate(6.905208838290433 23.953786862249103) rotate(145.56070594093802) scale(4.53113003947409 5.89016167565943)"><stop offset="0%" stop-color="#F0A51D" stop-opacity="1"/><stop offset="100%" stop-color="#F0A51D" stop-opacity="0"/></radialGradient></defs><g><g filter="url(#master_svg0_475_685)"><g><path d="M5.018659265534973,10.035864879602052L5.377299465534973,9.459765479602051C6.776229065534973,7.21294497960205,9.683718765534973,6.445505139602051,12.009319165534974,7.709304809602051L14.889420165534974,9.274465579602051L10.583419165534973,16.35546497960205L9.169118965534974,12.814165079602052L4.851609365534973,20.33356477960205C4.148969265534973,21.56006477960205,2.5789590655349732,21.97506477960205,1.3620991655349732,21.25586477960205L1.2455892655349732,21.18696577960205C0.031659126534973145,20.469564779602052,-0.36348080446502684,18.899364779602053,0.36624908553497315,17.69276477960205L3.986559065534973,11.706564879602052L3.9809390655349732,11.70256517960205L4.2617593655349735,11.251564979602051L4.844529265534973,10.287964779602051C4.898119065534973,10.19936557960205,4.956339465534973,10.11536497960205,5.018659265534973,10.035864879602052Z" fill="url(#master_svg1_475_782)" fill-opacity="1" style="mix-blend-mode:passthrough"/></g><g><path d="M5.018659265534973,10.035864879602052L5.377299465534973,9.459765479602051C6.776229065534973,7.21294497960205,9.683718765534973,6.445505139602051,12.009319165534974,7.709304809602051L14.889420165534974,9.274465579602051L10.583419165534973,16.35546497960205L9.169118965534974,12.814165079602052L4.851609365534973,20.33356477960205C4.148969265534973,21.56006477960205,2.5789590655349732,21.97506477960205,1.3620991655349732,21.25586477960205L1.2455892655349732,21.18696577960205C0.031659126534973145,20.469564779602052,-0.36348080446502684,18.899364779602053,0.36624908553497315,17.69276477960205L3.986559065534973,11.706564879602052L3.9809390655349732,11.70256517960205L4.2617593655349735,11.251564979602051L4.844529265534973,10.287964779602051C4.898119065534973,10.19936557960205,4.956339465534973,10.11536497960205,5.018659265534973,10.035864879602052Z" fill="url(#master_svg2_475_783)" fill-opacity="1" style="mix-blend-mode:passthrough"/></g></g><g><path d="M13.407519339863281,25.10136599753418L12.736518859863281,23.37666509753418L14.088719359863282,21.39106559753418L28.11851885986328,21.39106559753418L28.11851885986328,25.96976469753418C28.11851885986328,27.07426449753418,27.22311985986328,27.96976469753418,26.11851885986328,27.96976469753418L17.60131835986328,27.96976469753418C15.745618859863281,27.96976469753418,14.080319359863282,26.83066559753418,13.407519339863281,25.10136599753418Z" fill="url(#master_svg3_475_784)" fill-opacity="1" style="mix-blend-mode:passthrough"/></g><g><path d="M13.407519339863281,25.10136599753418L12.736518859863281,23.37666509753418L14.088719359863282,21.39106559753418L28.11851885986328,21.39106559753418L28.11851885986328,25.96976469753418C28.11851885986328,27.07426449753418,27.22311985986328,27.96976469753418,26.11851885986328,27.96976469753418L17.60131835986328,27.96976469753418C15.745618859863281,27.96976469753418,14.080319359863282,26.83066559753418,13.407519339863281,25.10136599753418Z" fill="url(#master_svg4_475_785)" fill-opacity="1" style="mix-blend-mode:passthrough"/></g><g><rect x="8.167359352111816" y="20.876665115356445" width="4.832290172576904" height="6.985290050506592" rx="2.416140079498291" fill="url(#master_svg5_475_786)" fill-opacity="1" style="mix-blend-mode:passthrough"/></g><g><rect x="8.167359352111816" y="20.876665115356445" width="4.832290172576904" height="6.985290050506592" rx="2.416140079498291" fill="url(#master_svg6_475_787)" fill-opacity="1" style="mix-blend-mode:passthrough"/></g><g><rect x="8.167359352111816" y="20.876665115356445" width="4.832290172576904" height="6.985290050506592" rx="2.416140079498291" fill="url(#master_svg7_475_788)" fill-opacity="1" style="mix-blend-mode:passthrough"/></g><g><path d="M16.374818739105223,0.25117517C16.512418739105225,0.011315107,16.818719739105227,-0.071214795,17.058318739105225,0.06698513L20.022017739105223,1.7767153C20.260718739105226,1.9143951,20.343018739105226,2.2192154,20.206017739105224,2.4583054L6.664069139105225,26.103365C6.614809039105225,26.189365,6.5411090391052245,26.258764,6.452328639105225,26.302765L3.2765192991052245,27.877665C3.1150889391052248,27.957766,2.9790792491052245,27.878265,2.9702792191052247,27.698364L2.7441892623852246,24.156765C2.7395191193052244,24.061266,2.762339115105225,23.966366,2.8099489211052244,23.883465L16.374818739105223,0.25117517Z" fill="url(#master_svg8_475_789)" fill-opacity="1" style="mix-blend-mode:passthrough"/></g><g><path d="M16.374818739105223,0.25117517C16.512418739105225,0.011315107,16.818719739105227,-0.071214795,17.058318739105225,0.06698513L20.022017739105223,1.7767153C20.260718739105226,1.9143951,20.343018739105226,2.2192154,20.206017739105224,2.4583054L6.664069139105225,26.103365C6.614809039105225,26.189365,6.5411090391052245,26.258764,6.452328639105225,26.302765L3.2765192991052245,27.877665C3.1150889391052248,27.957766,2.9790792491052245,27.878265,2.9702792191052247,27.698364L2.7441892623852246,24.156765C2.7395191193052244,24.061266,2.762339115105225,23.966366,2.8099489211052244,23.883465L16.374818739105223,0.25117517Z" fill="url(#master_svg9_475_790)" fill-opacity="1" style="mix-blend-mode:passthrough"/></g><g filter="url(#master_svga_475_715)"><g><path d="M15.910592993200684,6.613628310795899Q15.975818593200684,6.498781380795898,15.975818593200684,6.366704940795898Q15.975817693200684,6.317459240795898,15.966210393200683,6.269159786795899Q15.956603093200684,6.220860330795898,15.937757493200683,6.175363240795899Q15.918911893200683,6.129866150795898,15.891552893200684,6.088919880795898Q15.864192993200684,6.047973570795898,15.829371493200684,6.013151590795898Q15.794548993200683,5.978329630795899,15.753603893200683,5.950970200795899Q15.712656993200683,5.923610750795898,15.667159993200684,5.904765220795898Q15.621663093200684,5.885919690795898,15.573363293200684,5.876312340795899Q15.525063493200683,5.866704970795898,15.475818593200684,5.866704940795898Q15.409541093200684,5.866704970795898,15.345553393200683,5.883972230795899Q15.281563793200684,5.9012394807958986,15.224284193200683,5.934581340795899Q15.167004593200684,5.967923220795899,15.120388993200683,6.015036790795898Q15.073775293200683,6.062150360795899,15.041044193200683,6.119781570795898L15.040894493200684,6.120044510795898L5.989785073200683,22.056941940795898Q5.924559593200684,22.1717889407959,5.924559593200684,22.303864940795897Q5.924559623200683,22.353109940795896,5.934166993200684,22.4014089407959Q5.943774373200684,22.449708940795897,5.962619903200683,22.495204940795897Q5.9814654032006835,22.5407029407959,6.008824823200683,22.5816479407959Q6.036184283200684,22.6225949407959,6.071006243200683,22.657416940795898Q6.1058282232006835,22.692239940795897,6.1467745032006835,22.719598940795898Q6.187720803200683,22.746957940795898,6.233217893200684,22.7658019407959Q6.278714983200683,22.784648940795897,6.327014439200684,22.7942559407959Q6.375313893200683,22.803864940795897,6.424559593200684,22.803864940795897Q6.490836732200684,22.803864940795897,6.554825023200683,22.7865959407959Q6.6188133032006835,22.7693309407959,6.676093163200684,22.7359889407959Q6.733372983200684,22.702645940795897,6.779988143200684,22.655532940795897Q6.826603293200684,22.6084189407959,6.8593340532006835,22.550788940795897L15.910443293200684,6.613891060795899L15.910592993200684,6.613628270795898L15.910592993200684,6.613628310795899Z" fill-rule="evenodd" fill="#FF7150" fill-opacity="1" style="mix-blend-mode:passthrough"/></g></g><g filter="url(#master_svgb_475_721)"><g><path d="M8.167368856018067,20.015464724731444C6.916639328018066,20.889865724731443,6.514168736018067,22.649064724731446,7.330089566018066,23.938764724731445C8.166028956018067,25.260064724731443,10.003719356018067,25.647765724731446,11.335119256018066,24.828065724731445L14.864519156018066,22.655164724731446C15.298818556018066,22.387765724731445,15.868019056018067,22.528465724731447,16.127719856018068,22.967464724731446C17.487320356018067,25.265565724731445,20.059719356018064,26.562465724731446,22.715719356018067,26.289064724731446L26.547719356018067,25.894565724731446C27.440117356018067,25.802764724731446,28.118519356018066,25.050964724731443,28.118519356018066,24.153764724731445L28.118519356018066,17.023466124731446C28.118519356018066,15.891864824731446,27.425820356018065,14.874864624731444,26.381318356018067,14.439264324731445C24.154320356018065,13.510465624731445,20.099519356018064,11.750165024731444,16.086219756018068,9.653764724731445L11.345318756018067,17.934064824731443L8.167368856018067,20.015464724731444Z" fill="url(#master_svgc_475_792)" fill-opacity="1" style="mix-blend-mode:passthrough"/></g><g><path d="M8.167368856018067,20.015464724731444C6.916639328018066,20.889865724731443,6.514168736018067,22.649064724731446,7.330089566018066,23.938764724731445C8.166028956018067,25.260064724731443,10.003719356018067,25.647765724731446,11.335119256018066,24.828065724731445L14.864519156018066,22.655164724731446C15.298818556018066,22.387765724731445,15.868019056018067,22.528465724731447,16.127719856018068,22.967464724731446C17.487320356018067,25.265565724731445,20.059719356018064,26.562465724731446,22.715719356018067,26.289064724731446L26.547719356018067,25.894565724731446C27.440117356018067,25.802764724731446,28.118519356018066,25.050964724731443,28.118519356018066,24.153764724731445L28.118519356018066,17.023466124731446C28.118519356018066,15.891864824731446,27.425820356018065,14.874864624731444,26.381318356018067,14.439264324731445C24.154320356018065,13.510465624731445,20.099519356018064,11.750165024731444,16.086219756018068,9.653764724731445L11.345318756018067,17.934064824731443L8.167368856018067,20.015464724731444Z" fill="url(#master_svgd_475_793)" fill-opacity="1" style="mix-blend-mode:passthrough"/></g><g><path d="M8.167368856018067,20.015464724731444C6.916639328018066,20.889865724731443,6.514168736018067,22.649064724731446,7.330089566018066,23.938764724731445C8.166028956018067,25.260064724731443,10.003719356018067,25.647765724731446,11.335119256018066,24.828065724731445L14.864519156018066,22.655164724731446C15.298818556018066,22.387765724731445,15.868019056018067,22.528465724731447,16.127719856018068,22.967464724731446C17.487320356018067,25.265565724731445,20.059719356018064,26.562465724731446,22.715719356018067,26.289064724731446L26.547719356018067,25.894565724731446C27.440117356018067,25.802764724731446,28.118519356018066,25.050964724731443,28.118519356018066,24.153764724731445L28.118519356018066,17.023466124731446C28.118519356018066,15.891864824731446,27.425820356018065,14.874864624731444,26.381318356018067,14.439264324731445C24.154320356018065,13.510465624731445,20.099519356018064,11.750165024731444,16.086219756018068,9.653764724731445L11.345318756018067,17.934064824731443L8.167368856018067,20.015464724731444Z" fill="url(#master_svge_475_794)" fill-opacity="1" style="mix-blend-mode:passthrough"/></g><g><path d="M8.167368856018067,20.015464724731444C6.916639328018066,20.889865724731443,6.514168736018067,22.649064724731446,7.330089566018066,23.938764724731445C8.166028956018067,25.260064724731443,10.003719356018067,25.647765724731446,11.335119256018066,24.828065724731445L14.864519156018066,22.655164724731446C15.298818556018066,22.387765724731445,15.868019056018067,22.528465724731447,16.127719856018068,22.967464724731446C17.487320356018067,25.265565724731445,20.059719356018064,26.562465724731446,22.715719356018067,26.289064724731446L26.547719356018067,25.894565724731446C27.440117356018067,25.802764724731446,28.118519356018066,25.050964724731443,28.118519356018066,24.153764724731445L28.118519356018066,17.023466124731446C28.118519356018066,15.891864824731446,27.425820356018065,14.874864624731444,26.381318356018067,14.439264324731445C24.154320356018065,13.510465624731445,20.099519356018064,11.750165024731444,16.086219756018068,9.653764724731445L11.345318756018067,17.934064824731443L8.167368856018067,20.015464724731444Z" fill="url(#master_svgf_475_795)" fill-opacity="1" style="mix-blend-mode:passthrough"/></g></g><g><path d="M8.167368856018067,20.015464724731444C6.916639328018066,20.889865724731443,6.514168736018067,22.649064724731446,7.330089566018066,23.938764724731445C8.166028956018067,25.260064724731443,10.003719356018067,25.647765724731446,11.335119256018066,24.828065724731445L14.864519156018066,22.655164724731446C15.298818556018066,22.387765724731445,15.868019056018067,22.528465724731447,16.127719856018068,22.967464724731446C17.487320356018067,25.265565724731445,20.059719356018064,26.562465724731446,22.715719356018067,26.289064724731446L26.547719356018067,25.894565724731446C27.440117356018067,25.802764724731446,28.118519356018066,25.050964724731443,28.118519356018066,24.153764724731445L28.118519356018066,17.023466124731446C28.118519356018066,15.891864824731446,27.425820356018065,14.874864624731444,26.381318356018067,14.439264324731445C24.154320356018065,13.510465624731445,20.099519356018064,11.750165024731444,16.086219756018068,9.653764724731445L11.345318756018067,17.934064824731443L8.167368856018067,20.015464724731444Z" fill="url(#master_svgg_475_796)" fill-opacity="1" style="mix-blend-mode:passthrough"/></g><g><path d="M8.167368856018067,20.015464724731444C6.916639328018066,20.889865724731443,6.514168736018067,22.649064724731446,7.330089566018066,23.938764724731445C8.166028956018067,25.260064724731443,10.003719356018067,25.647765724731446,11.335119256018066,24.828065724731445L14.864519156018066,22.655164724731446C15.298818556018066,22.387765724731445,15.868019056018067,22.528465724731447,16.127719856018068,22.967464724731446C17.487320356018067,25.265565724731445,20.059719356018064,26.562465724731446,22.715719356018067,26.289064724731446L26.547719356018067,25.894565724731446C27.440117356018067,25.802764724731446,28.118519356018066,25.050964724731443,28.118519356018066,24.153764724731445L28.118519356018066,17.023466124731446C28.118519356018066,15.891864824731446,27.425820356018065,14.874864624731444,26.381318356018067,14.439264324731445C24.154320356018065,13.510465624731445,20.099519356018064,11.750165024731444,16.086219756018068,9.653764724731445L11.345318756018067,17.934064824731443L8.167368856018067,20.015464724731444Z" fill="url(#master_svgh_475_797)" fill-opacity="1" style="mix-blend-mode:passthrough"/></g><g><path d="M10.701719284057617,18.32746505307129L11.231919284057618,17.97436523407129L11.314719204057617,17.94486427307129L10.703119277957617,18.328966143071288L10.701719284057617,18.32746505307129Z" fill="url(#master_svgi_475_798)" fill-opacity="1" style="mix-blend-mode:passthrough"/></g><g><path d="M15.159719506945802,11.271965026855469L11.3527193069458,17.92106432685547L13.1101189069458,16.81746482685547C14.1515188069458,16.16336442685547,15.3896198069458,15.895765326855468,16.6082191069458,16.061164826855467L19.040020006945802,16.39126582685547L15.159719506945802,11.271965026855469Z" fill="url(#master_svgj_475_799)" fill-opacity="1" style="mix-blend-mode:passthrough"/></g><g><path d="M14.234619140625,3.979845991723633L15.307319640625,2.111085891723633L19.130819340625,4.335865991723633L18.060018540625,6.205666091723633L14.234619140625,3.979845991723633Z" fill="url(#master_svgk_475_800)" fill-opacity="1" style="mix-blend-mode:passthrough"/></g><g><path d="M14.234619140625,3.979845991723633L15.307319640625,2.111085891723633L19.130819340625,4.335865991723633L18.060018540625,6.205666091723633L14.234619140625,3.979845991723633Z" fill="url(#master_svgl_475_801)" fill-opacity="1" style="mix-blend-mode:passthrough"/></g><g><path d="M6.621019324407959,26.166765219604493C6.575609224407959,26.22366521960449,6.518118824407959,26.270265619604494,6.452319124407959,26.302866019604494L3.276479244407959,27.877765619604492C3.115098954407959,27.957864719604494,2.979049204407959,27.878364519604492,2.970269204407959,27.69846531960449L2.744189262387959,24.156866069604494C2.741379261007959,24.099565509604492,2.748459339107959,24.042465209604494,2.764879226407959,23.988065719604492L6.621019324407959,26.166765219604493Z" fill="url(#master_svgm_475_802)" fill-opacity="1" style="mix-blend-mode:passthrough"/></g><g><path d="M6.621019324407959,26.166765219604493C6.575609224407959,26.22366521960449,6.518118824407959,26.270265619604494,6.452319124407959,26.302866019604494L3.276479244407959,27.877765619604492C3.115098954407959,27.957864719604494,2.979049204407959,27.878364519604492,2.970269204407959,27.69846531960449L2.744189262387959,24.156866069604494C2.741379261007959,24.099565509604492,2.748459339107959,24.042465209604494,2.764879226407959,23.988065719604492L6.621019324407959,26.166765219604493Z" fill="url(#master_svgn_475_803)" fill-opacity="1" style="mix-blend-mode:passthrough"/></g><g><path d="M6.621019324407959,26.166765219604493C6.575609224407959,26.22366521960449,6.518118824407959,26.270265619604494,6.452319124407959,26.302866019604494L3.276479244407959,27.877765619604492C3.115098954407959,27.957864719604494,2.979049204407959,27.878364519604492,2.970269204407959,27.69846531960449L2.744189262387959,24.156866069604494C2.741379261007959,24.099565509604492,2.748459339107959,24.042465209604494,2.764879226407959,23.988065719604492L6.621019324407959,26.166765219604493Z" fill="url(#master_svgo_475_804)" fill-opacity="1" style="mix-blend-mode:passthrough"/></g><g><path d="M4.093629324090577,27.472564699277342L3.2764892540905763,27.877765659277344C3.115108964090576,27.957864759277342,2.979069233090576,27.878364559277344,2.9702792170905763,27.698465349277345L2.912349224090576,26.791465759277344L4.093629324090577,27.472564699277342Z" fill="url(#master_svgp_475_805)" fill-opacity="1" style="mix-blend-mode:passthrough"/></g><g filter="url(#master_svgq_475_766)"><g><path d="M16.05241963983154,18.60526466748047L10.420919419831543,21.646865817480467C10.057619094831542,21.84306521748047,9.946919439831543,22.312465717480467,10.184518809831543,22.650264717480468C10.386419299831543,22.937465717480467,10.771819109831544,23.02716441748047,11.079818739831543,22.85856441748047L16.001419039831543,20.16446491748047C16.579519239831544,19.847965217480468,17.276519739831542,19.83666611748047,17.864618339831544,20.134164817480467L26.863318639831544,24.686464317480468L26.863318639831544,18.24486541748047L17.478118939831543,18.24486541748047C16.980319939831542,18.24486541748047,16.490419339831544,18.36876487748047,16.05241963983154,18.60526466748047Z" fill="#FFEF64" fill-opacity="1" style="mix-blend-mode:passthrough"/></g></g><g><path d="M11.352719356018067,17.921287582348633L13.110118856018065,16.81768799234863C14.151518856018066,16.163587572348632,15.389619856018067,15.895986552348633,16.608219156018066,16.061388015348633L18.076419356018064,16.260686872348632L16.137718156018067,22.984386482348633L16.127719856018068,22.96768758234863C15.868019056018067,22.528686482348633,15.298818556018066,22.38798718234863,14.864519156018066,22.655387882348634L11.335119256018066,24.82828708234863C10.003719356018067,25.64798738234863,8.166028956018067,25.26028628234863,7.330089566018066,23.93888668234863C6.514168736018067,22.649288182348634,6.916639328018066,20.890087082348632,8.167368856018067,20.01568798234863L11.345318756018067,17.93418698234863L11.352719356018067,17.921287582348633Z" fill="url(#master_svgr_475_807)" fill-opacity="1" style="mix-blend-mode:passthrough"/></g><g><path d="M11.352719356018067,17.921287582348633L13.110118856018065,16.81768799234863C14.151518856018066,16.163587572348632,15.389619856018067,15.895986552348633,16.608219156018066,16.061388015348633L18.076419356018064,16.260686872348632L16.137718156018067,22.984386482348633L16.127719856018068,22.96768758234863C15.868019056018067,22.528686482348633,15.298818556018066,22.38798718234863,14.864519156018066,22.655387882348634L11.335119256018066,24.82828708234863C10.003719356018067,25.64798738234863,8.166028956018067,25.26028628234863,7.330089566018066,23.93888668234863C6.514168736018067,22.649288182348634,6.916639328018066,20.890087082348632,8.167368856018067,20.01568798234863L11.345318756018067,17.93418698234863L11.352719356018067,17.921287582348633Z" fill="url(#master_svgs_475_808)" fill-opacity="1" style="mix-blend-mode:passthrough"/></g></g></svg>